<svg width="240" height="324" viewBox="0 0 240 324" fill="none" xmlns="http://www.w3.org/2000/svg">
<path fill-rule="evenodd" clip-rule="evenodd" d="M194.637 251.934C193.786 247.123 193.005 242.299 192.296 237.465C191.959 235.169 191.63 232.872 191.335 230.571C191.128 228.959 190.813 227.115 191.91 225.921C193.452 224.24 194.854 222.802 195.043 220.395C195.221 218.129 194.455 215.66 193.976 213.462C192.972 208.851 191.722 204.297 190.341 199.786C188.938 195.204 187.4 190.664 185.839 186.133C184.38 181.897 182.978 177.622 181.077 173.558C177.471 165.845 171.369 160.132 163.829 156.318C161.953 155.37 158.128 151.984 156.169 151.225C154.368 150.528 154.374 152.564 152.601 151.797C151.184 151.184 149.865 150.367 149.071 148.998C148.209 147.512 146.049 145.433 145.72 143.703C145.023 140.035 145.778 136.914 143.162 134.154C140.839 131.703 137.717 130.024 134.487 129.123C127.381 127.14 117.904 128.526 113.616 135.132C111.568 138.286 110.853 142.1 108.09 144.674C105.677 146.922 106.217 148.459 103.092 149.617C102.915 149.683 98.1171 148.654 97.9401 148.72C94.5214 147.988 91.2538 150.037 88.1173 151.225C83.4414 152.998 78.9895 155.304 74.8071 158.045C66.3735 163.573 59.1502 170.752 53.1952 178.874C47.191 187.064 42.5323 196.244 39.2152 205.838C38.4097 208.168 37.6861 210.527 37.0478 212.908C36.6906 214.241 36.3088 215.624 36.7438 216.988C37.0996 218.105 37.891 218.936 38.8204 219.606C40.0802 220.514 42.6071 221.104 42.5579 222.931C42.5203 224.32 42.0494 225.781 41.8195 227.153C41.5459 228.787 41.3211 230.431 41.0964 232.073C40.0738 239.544 39.278 247.057 38.926 254.592C38.5795 262.011 38.292 269.581 38.8064 276.998C38.8404 277.487 38.9862 277.936 39.2214 278.315C39.0018 278.399 38.9849 278.808 39.2581 278.866C39.4495 278.907 39.6405 278.948 39.8319 278.988C40.2295 279.289 40.7254 279.474 41.296 279.492C41.6828 279.504 42.0695 279.521 42.4559 279.541C46.5335 280.394 50.6106 281.199 54.7415 281.809C59.7629 282.551 64.7991 283.155 69.8509 283.646C80.2316 284.656 90.5304 284.321 100.925 283.777C111.303 283.234 121.675 283.107 132.064 283.377C142.463 283.648 152.857 284.1 163.257 284.285C174.877 284.492 186.479 284.174 198.065 283.25C199.653 283.124 200.636 281.859 200.323 280.281C198.446 270.825 196.318 261.431 194.637 251.934Z" fill="#EDB98A"/>
<path fill-rule="evenodd" clip-rule="evenodd" d="M88.1169 151.225L88.3438 151.138C91.4109 149.939 94.6033 148.005 97.9396 148.719C98.0576 148.676 100.229 149.118 101.716 149.399L100.304 150.873L97.8133 151.352C106.406 165.54 116.569 172.633 128.302 172.633C140.035 172.633 148.938 165.54 155.012 151.352L155.84 151.123C155.943 151.147 156.052 151.18 156.168 151.225C158.128 151.983 161.953 155.37 163.828 156.318C171.369 160.132 177.47 165.844 181.077 173.558C182.914 177.487 184.286 181.612 185.693 185.709L185.839 186.133C187.399 190.664 188.938 195.203 190.341 199.786C191.662 204.101 192.863 208.455 193.843 212.86L193.976 213.461C194.454 215.66 195.22 218.129 195.042 220.394C194.975 221.252 194.754 221.987 194.427 222.653L177.431 228.771L185.528 284.017C178.112 284.335 170.688 284.417 163.257 284.285C152.856 284.1 142.462 283.647 132.064 283.377C121.99 283.115 111.931 283.226 101.868 283.729L99.3121 283.859C89.4643 284.352 79.6942 284.604 69.8504 283.646L69.1797 283.58L69.1796 275.499L72.6374 230.5L55.1139 227.201L37.9121 218.842C37.3923 218.323 36.9753 217.716 36.7433 216.988C36.3404 215.724 36.6382 214.445 36.9682 213.204L37.0473 212.908C37.6856 210.526 38.4092 208.168 39.2147 205.837C42.5319 196.243 47.1905 187.064 53.1947 178.874C59.1497 170.751 66.373 163.573 74.8066 158.045C78.989 155.304 83.4409 152.997 88.1169 151.225Z" fill="#EC7495"/>
<path fill-rule="evenodd" clip-rule="evenodd" d="M94.6977 148.487C95.7722 148.44 96.8679 148.614 97.9398 148.72C98.0332 148.729 98.0687 148.873 97.9635 148.895C96.045 149.296 94.1476 149.844 92.2634 150.401L91.4567 150.64C89.332 151.269 87.2696 151.918 85.2127 152.756C81.1132 154.428 77.2198 156.684 73.6365 159.275C59.8382 169.256 49.8515 184.366 43.5494 200.01C41.8379 204.259 40.3878 208.613 39.2131 213.041C38.9275 214.118 38.6588 215.199 38.404 216.284C38.3292 216.602 38.0032 217.417 38.182 217.742C38.34 218.03 38.9543 218.208 39.2398 218.357L40.2034 218.857C42.083 219.826 45.214 221.419 45.5279 221.575L46.0176 221.816C54.0269 225.744 62.5848 229.075 71.5977 229.305L71.6683 228.535C72.0701 224.278 72.5974 219.999 73.7484 215.873C73.8103 215.651 74.0924 215.726 74.1181 215.923C74.7593 220.808 74.5544 225.73 74.3307 230.637C73.9346 239.328 73.4085 248.015 72.941 256.702C72.7069 261.048 72.4043 265.391 72.1312 269.735C71.8576 274.087 71.7691 278.544 71.1443 282.861C71.0051 283.823 69.8786 284.346 69.0255 284.245C68.0816 284.132 67.3555 283.301 67.351 282.347C67.3396 279.833 67.6555 277.288 67.831 274.78C67.9977 272.397 68.1767 270.015 68.3601 267.633C69.0302 258.94 69.8011 250.257 70.5141 241.568C70.7668 238.486 71.0398 235.407 71.3208 232.328C61.7729 232.02 52.853 228.482 44.3436 224.348C44.2204 227.146 43.9229 229.939 43.635 232.725C42.8311 240.499 42.1223 248.271 41.5918 256.07C41.3239 260.009 41.1289 263.953 40.9591 267.897C40.8756 269.836 40.8076 271.774 40.7554 273.714C40.7379 274.36 40.7222 275.007 40.7082 275.654L40.6792 277.135C40.6554 278.073 40.5601 278.943 39.7707 279.626C38.9689 280.32 37.886 280.357 37.0924 279.626C36.0302 278.647 36.218 277.314 36.2495 276C36.2757 274.891 36.3072 273.783 36.3437 272.675C36.417 270.459 36.5106 268.243 36.6245 266.028C37.023 258.285 37.8191 250.573 38.8596 242.892L39.2658 239.927C40.0243 234.415 40.857 228.777 42.5527 223.468C41.8924 223.139 41.2341 222.808 40.5784 222.476C39.4151 221.887 38.2124 221.334 37.0817 220.684C36.1846 220.168 35.411 219.46 35.1612 218.416C34.8827 217.252 35.3086 215.98 35.5915 214.845L35.6161 214.745C35.8935 213.602 36.1922 212.464 36.5074 211.331C37.7856 206.737 39.3661 202.232 41.2158 197.837C44.9193 189.038 49.6996 180.679 55.5389 173.121C60.795 166.317 67.0041 160.147 74.2815 155.52C77.8392 153.258 81.6306 151.4 85.6403 150.087C87.5144 149.473 89.5536 148.939 91.5158 148.72C92.5743 148.601 93.6342 148.533 94.6977 148.487ZM113.736 134.544C115.013 133.173 117.549 134.592 116.936 136.408C115.494 140.682 113.198 144.58 109.614 147.388C106.245 150.027 102.228 151.742 97.9013 151.376C97.8679 151.373 97.839 151.364 97.8134 151.352L98.1863 151.858C101.113 155.819 104.201 159.725 107.923 162.963C115.506 169.559 125.831 173.117 135.8 170.586C143.644 168.595 150.555 162.39 152.587 154.482C152.296 154.613 151.95 154.658 151.57 154.575C149.944 154.222 148.334 152.511 147.285 151.284C146.15 149.957 145.264 148.524 144.615 146.904C143.426 143.94 143.045 140.123 144.668 137.252C144.868 136.898 145.33 137.096 145.37 137.442L145.431 137.981C145.744 140.672 146.134 143.275 147.402 145.729C148.023 146.929 148.767 148.101 149.673 149.106C150.158 149.644 150.683 150.158 151.25 150.609C151.803 151.049 152.472 151.366 152.967 151.871L153.058 151.967L153.061 151.95C153.186 150.885 153.933 150.415 154.664 150.445C155.371 150.473 156.202 150.785 156.523 150.934L156.554 150.948C161.487 153.317 166.031 156.405 170.307 159.831C179.15 166.917 185.775 176.179 188.986 187.086C190.561 192.44 191.465 197.956 192.42 203.446L193.007 206.81C193.898 211.879 194.893 217.047 196.904 221.762C197.424 222.981 197.023 224.125 195.748 224.605C194.155 225.204 192.557 225.784 190.956 226.356C191.742 229.73 192.221 233.221 192.81 236.611C194.062 243.818 195.596 250.979 196.911 258.176C197.584 261.856 198.191 265.549 198.863 269.229C199.186 271.001 199.524 272.771 199.852 274.543C200.029 275.498 200.189 276.456 200.358 277.413L200.387 277.572C200.484 278.076 200.605 278.598 200.467 279.103C200.308 279.679 199.859 280.086 199.458 280.499C199.128 280.839 198.65 280.841 198.246 280.656L198.113 280.594C197.39 280.256 196.824 279.919 196.568 279.103C196.405 278.587 196.347 278.005 196.241 277.473C196.037 276.454 195.845 275.433 195.662 274.409C195.298 272.36 194.942 270.31 194.595 268.258L194.271 266.337C193.157 259.715 192.1 253.054 191.565 246.362C191.328 243.394 191.077 240.428 190.823 237.461L190.633 235.236C190.392 232.42 190.098 229.533 190.056 226.678L189.099 227.018L184.427 228.67C183.269 229.08 181.795 229.919 180.548 229.766C179.938 229.691 179.473 229.499 179.114 229.15C179.544 235.223 180.126 241.285 180.902 247.316C181.608 252.804 182.391 258.285 183.315 263.74C183.773 266.442 184.244 269.141 184.755 271.832C185.01 273.179 185.274 274.523 185.545 275.866C185.681 276.536 185.842 277.206 185.948 277.882C186.069 278.655 185.856 279.131 185.424 279.768C185.069 280.29 184.359 280.559 183.784 280.198C183.022 279.72 182.625 279.305 182.401 278.434C182.197 277.643 182.073 276.817 181.915 276.016C181.625 274.537 181.343 273.056 181.072 271.574C180.504 268.473 179.981 265.364 179.514 262.246C177.867 251.263 176.822 240.187 176.294 229.093C176.034 223.62 175.953 218.142 175.999 212.663C176.023 209.854 176.115 207.038 176.313 204.237C176.514 201.401 176.933 198.622 177.306 195.813C177.319 195.714 177.459 195.709 177.465 195.813C177.642 198.962 177.919 202.107 178.055 205.264C178.184 208.276 178.241 211.294 178.344 214.307C178.48 218.268 178.667 222.232 178.916 226.192C179.366 225.7 180.045 225.416 180.724 225.526C181.708 225.32 182.766 224.804 183.704 224.49L187.24 223.309C189.098 222.688 190.957 222.071 192.822 221.473C191.154 215.861 190.012 210.165 189.037 204.387L188.602 201.788C187.741 196.672 186.812 191.554 185.252 186.6C183.613 181.392 181.159 176.55 177.904 172.165C174.696 167.844 170.792 164.039 166.773 160.48C163.332 157.433 159.651 154.682 156.141 151.719C156.178 151.915 156.186 152.131 156.154 152.369C155.408 157.832 152.559 162.92 148.588 166.704C140.612 174.307 128.805 175.884 118.596 172.319C108.721 168.871 99.9895 160.704 96.9048 150.597C96.852 150.425 97.0835 150.356 97.1765 150.483C97.3476 150.718 97.5196 150.952 97.6917 151.187C97.6801 151.094 97.7285 150.992 97.8434 150.948C101.443 149.557 104.977 147.586 107.675 144.797C108.99 143.437 110.137 141.897 111.043 140.235C111.477 139.44 111.867 138.616 112.178 137.764L112.257 137.544C112.634 136.477 112.949 135.389 113.736 134.544Z" fill="black"/>
<path fill-rule="evenodd" clip-rule="evenodd" d="M132.684 46.2808C144.655 46.2808 159.647 59.9701 164.035 65.7955C167.724 70.6932 167.203 95.9244 167.203 110.892C167.203 114.022 165.791 119.946 165.279 122.941C163.401 133.913 155.221 143.115 139.03 143.115C125.847 143.115 115.701 138.929 105.891 128.222C103.652 125.779 92.7217 134.524 90.4862 131.375C84.6471 131.375 79.7647 76.6819 91.2289 60.2772C102.693 43.8726 120.713 46.2808 132.684 46.2808Z" fill="#EDB98A"/>
<path fill-rule="evenodd" clip-rule="evenodd" d="M96.7049 50.1333C103.622 43.8245 112.837 40.7895 122.134 41.0135C126.949 41.1297 131.748 42.0491 136.295 43.6237C138.57 44.4141 140.773 45.4455 142.879 46.6122C143.638 47.0316 144.338 47.5231 145.011 48.0451L145.179 48.1762H145.181C146.988 48.8271 148.601 49.9959 150.064 51.3633C152.996 51.1287 155.952 51.3929 158.788 52.2996C162.734 53.5635 166.388 55.8778 168.954 59.1643C171.942 62.9904 172.936 67.6314 172.581 72.4224L172.516 73.2363C172.165 77.4685 171.537 82.9121 168.072 85.693C167.809 85.9043 167.518 86.0649 167.216 86.1622C169.449 89.996 171.281 94.2526 172.377 98.5515C176.562 114.971 173.345 132.095 168.313 147.921C167.899 149.225 165.932 150.091 164.931 148.817C163.143 146.539 160.546 144.801 157.624 144.476C155.821 144.275 154.027 144.639 152.324 143.819C151.656 143.495 151.01 142.967 150.547 142.324C147.671 143.417 144.574 143.933 141.502 143.806C136.462 143.599 131.073 141.849 127.605 138.011C127.048 137.395 126.907 136.703 127.036 136.079C127.471 135.924 127.917 135.808 128.377 135.735C132.775 138.334 137.622 140.07 142.832 140.179C145.843 140.242 148.779 139.82 151.22 137.936C151.748 137.528 152.234 137.076 152.683 136.591C157.786 133.3 161.384 127.71 163.095 121.722C164.689 116.138 164.493 110.324 163.944 104.596L163.655 101.574C163.234 97.1376 162.843 92.6883 162.733 88.2334L162.766 88.2317C163.844 88.1619 163.852 86.4705 162.766 86.5409C159.958 86.7231 157.172 86.2613 154.372 86.4625C154.349 85.1358 154.254 83.8151 153.865 82.5356C153.643 81.8045 152.373 81.6604 152.238 82.5356C152.058 83.7065 151.992 84.8708 151.973 86.047C147.784 85.9912 143.598 85.6378 139.409 85.783C138.636 84.9566 138.39 83.4913 138.028 82.472C137.975 82.3219 137.923 82.174 137.868 82.0239C137.55 83.4805 137.1 84.9053 136.507 86.3L135.48 86.3034C129.65 86.3309 123.701 86.5056 118.008 87.7194C117.612 87.4148 117.376 86.8835 117.313 86.401C116.9 83.2612 116.31 80.2049 115.266 77.2128L115.116 76.7907C115.104 76.7556 115.091 76.7184 115.078 76.6793C114.308 77.9248 113.39 79.0857 112.388 80.1668C111.798 80.804 111.179 81.4133 110.544 82.0053C109.927 82.6922 109.289 83.3687 108.671 84.0577C108.695 84.1831 108.716 84.3103 108.733 84.4399C108.922 85.8696 108.942 87.3197 108.803 88.755C108.553 91.3497 107.822 93.85 106.648 96.163L106.611 96.3946C106.433 97.4786 106.179 98.5988 105.587 99.4151C106.326 100.245 106.896 101.237 107.226 102.339C107.52 103.32 106.166 104.17 105.464 103.367C104.906 102.729 104.287 102.202 103.606 101.781C103.563 101.839 103.486 101.868 103.398 101.819C101.503 100.764 98.2839 101.083 96.3908 102.077C94.0359 103.311 93.1167 105.845 93.3781 108.413C93.629 110.867 94.7 113.735 96.7766 114.992C97.7295 115.569 98.4716 115.618 99.4835 115.341C99.8071 115.253 100.208 114.983 100.38 114.849L100.55 114.712C101.213 114.187 101.831 113.827 102.614 113.813C103.415 113.563 104.22 113.91 104.526 114.752L104.545 114.806C104.689 115.235 104.95 115.774 104.893 116.43C104.834 117.131 104.514 117.77 104.035 118.283C103.953 118.372 103.864 118.461 103.774 118.543C112.017 127.49 113.075 141.43 108.848 152.606C108.665 153.097 108.469 153.581 108.264 154.061C107.558 155.705 104.838 155.196 104.493 153.566C104.389 153.078 104.275 152.592 104.151 152.11C103.922 151.219 103.661 150.337 103.365 149.468L103.253 149.142C103.002 148.424 102.768 147.699 102.515 146.98L102.49 146.898C102.48 146.866 102.47 146.828 102.458 146.786L102.03 147.722L100.729 150.548C100.121 151.867 98.1868 151.15 98.1149 149.879L98.1132 149.836C98.1068 149.601 98.0984 149.369 98.0837 149.138C97.9909 147.411 97.6936 145.733 97.2214 144.091L97.051 144.303C94.514 147.448 91.5365 150.395 87.4519 151.121C86.4273 151.302 85.2678 150.229 85.9719 149.191C86.2629 148.762 86.5433 148.322 86.8089 147.876C86.5791 147.769 86.362 147.657 86.1617 147.543C84.6121 146.67 83.3219 145.427 82.2552 144.017C79.993 141.029 79.1835 137.267 78.9853 133.585C78.7745 129.694 79.116 125.592 80.1764 121.838C80.636 120.215 81.258 118.657 81.9769 117.146C81.9263 117.011 81.8778 116.876 81.8293 116.74C81.0535 114.572 80.4168 112.355 79.8876 110.112C78.8209 105.585 78.2474 100.914 78.1779 96.2626C78.0514 87.929 79.485 79.4623 82.506 71.691C85.6262 63.6766 90.3191 55.956 96.7049 50.1333ZM92.819 122.994C92.246 122.09 90.8125 122.905 91.3445 123.815L91.3643 123.848C92.273 125.283 92.6988 126.915 93.2217 128.515C93.5569 129.544 95.1865 129.104 94.8471 128.064L94.7347 127.717C94.2145 126.095 93.7399 124.446 92.819 122.994ZM97.8101 105.731L98.1908 105.546C99.3915 104.972 100.444 104.581 101.862 105.082C103.762 105.752 105.796 107.885 104.512 109.954C104.04 110.717 103.201 111.021 102.336 110.842C100.879 110.539 100.503 109.223 99.7638 108.143L99.6365 107.96C99.1857 107.307 98.6156 106.404 97.865 106.147C97.6942 106.088 97.6225 105.822 97.8101 105.731ZM98.8798 61.8L99.0024 61.6899C99.8183 60.9671 98.6208 59.7751 97.8091 60.4937C94.0945 63.7844 92.8042 68.935 90.8773 73.3247C90.4451 74.3117 91.8977 75.174 92.3341 74.1786C94.1722 69.9897 95.3922 64.9789 98.8798 61.8ZM143.519 60.3605C142.549 59.922 141.7 61.3381 142.633 61.8043L142.668 61.8209C145.948 63.3067 147.344 66.6714 148.68 69.7952C149.106 70.7928 150.559 69.9326 150.137 68.9434L149.896 68.383C148.501 65.1638 146.875 61.8825 143.519 60.3605ZM148.661 58.3273C147.633 57.9701 147.192 59.6018 148.212 59.9589C150.993 60.929 152.901 63.0214 154.51 65.4139C155.113 66.31 156.574 65.4646 155.964 64.56C154.097 61.7829 151.879 59.4517 148.661 58.3273Z" fill="black"/>
<path fill-rule="evenodd" clip-rule="evenodd" d="M143.152 128.274C141.732 127.694 140.465 126.727 139.538 125.492C139.216 125.063 139.133 124.61 139.2 124.195C139.276 123.729 139.552 123.306 139.928 123.023C140.305 122.738 140.777 122.598 141.233 122.67C141.63 122.732 142.024 122.949 142.337 123.399L142.402 123.489C142.953 124.235 143.67 124.846 144.488 125.24C145.276 125.62 146.158 125.798 147.07 125.695C148.807 125.498 150.005 124.558 151.278 123.282C151.436 123.121 151.593 122.954 151.752 122.786C151.852 122.632 151.991 122.534 152.146 122.482C152.317 122.425 152.511 122.428 152.689 122.49C152.86 122.55 153.013 122.663 153.116 122.814C153.213 122.958 153.268 123.135 153.251 123.338C153.134 124.661 152.443 125.842 151.461 126.769C150.37 127.798 148.924 128.511 147.563 128.76C146.064 129.036 144.536 128.839 143.152 128.274ZM148.271 107.866C149.866 108.836 152.297 111.098 150.58 113.503C148.56 115.624 145.652 113.192 144.218 112.093C142.889 111.241 141.396 113.432 142.629 114.427C152.986 122.098 157.189 108.12 149.077 106.725C148.184 106.572 147.853 107.566 148.271 107.866ZM129.711 98.9426C129.887 96.7538 133.219 96.2568 133.551 98.4227C133.847 100.363 133.498 102.145 132.624 103.892C131.79 105.561 129.692 104.782 129.533 103.263C129.32 101.226 129.601 100.304 129.711 98.9426ZM155.076 97.9736C155.541 97.3649 156.212 96.9494 157.015 97.1842C159.526 97.9182 158.786 101.484 157.904 103.22C157.425 104.163 155.876 104.402 155.176 103.572C154.035 102.218 153.489 99.5154 154.939 98.1822C154.979 98.1133 155.023 98.0438 155.076 97.9736ZM132.589 89.3651L132.986 89.2957C134.213 89.0834 135.738 88.8794 136.606 89.8662C137.067 90.3895 137.225 91.3622 136.606 91.8631C135.518 92.7444 134.314 92.4029 133.01 92.4775C131.935 92.5392 130.902 92.7171 129.867 93.0132C127.595 93.6627 125.744 94.8484 123.804 96.1503C123.55 96.3211 123.29 95.9954 123.411 95.7572C124.531 93.5627 126.701 91.7601 128.875 90.6613C130.036 90.0748 131.305 89.5883 132.589 89.3651ZM152.787 88.3821L153.091 88.4442C156.394 89.1351 160.687 90.515 162.251 93.7613C162.311 94.2203 162.248 94.3187 162.196 94.3829L162.179 94.4043C162.137 94.4592 162.103 94.5349 161.905 94.5974C161.849 94.5842 161.794 94.5703 161.737 94.5555C161.02 94.3675 160.453 94.1085 159.904 93.8398L159.308 93.5462C158.617 93.2073 157.92 92.8807 157.181 92.6396C155.605 92.1252 153.983 91.7628 152.336 91.5693C151.98 91.5274 151.636 91.4069 151.365 91.2004C151.107 91.0044 150.911 90.733 150.821 90.3722C150.705 89.9053 150.738 89.5518 150.989 89.1306C151.177 88.8143 151.446 88.5951 151.756 88.4692C152.071 88.3408 152.43 88.3106 152.787 88.3821Z" fill="black"/>
</svg>
