<svg width="240" height="324" viewBox="0 0 240 324" fill="none" xmlns="http://www.w3.org/2000/svg">
<path fill-rule="evenodd" clip-rule="evenodd" d="M170.479 181.122C168.644 180.468 166.876 179.712 165.265 178.6C160.621 175.142 157.592 169.937 154.731 165.006C150.7 157.835 147.829 150.193 145.844 142.221C144.991 138.795 144.702 134.824 142.764 131.787C138.371 125.429 125.49 126.253 118.651 127.369C114.07 128.18 113.124 133.308 112.083 137.102C111.217 140.255 110.65 143.443 110.174 146.674C109.042 147.419 107.763 148.024 106.545 148.551C93.2646 152.625 90.9305 160.177 85.8582 171.843C77.2911 188.799 54.0443 195.439 50.5328 215.506C48.2703 228.755 54.704 241.219 61.3372 252.232C67.5147 264.263 76.1388 270.037 89.8731 267.195C102.755 264.304 115.135 259.468 127.791 255.731C133.92 254.223 140.04 250.302 146.488 251.669C159.773 254.654 173.424 256.057 187.039 255.67C206.155 256.443 206.152 238.089 204.19 223.875C202.816 201.755 191.663 187.551 170.479 181.122V181.122Z" fill="#FFDBB4"/>
<path fill-rule="evenodd" clip-rule="evenodd" d="M171.757 213.13C173.354 214.187 174.698 215.789 175.776 217.475C171.274 217.007 166.779 216.466 162.294 215.851C162.881 215.476 163.474 215.109 164.08 214.762C166.292 213.516 169.288 211.497 171.757 213.13ZM96.9503 226.445C96.1253 226.121 95.8061 224.863 95.4845 224.142C94.4764 221.88 93.5563 219.579 92.5991 217.295C96.2337 216.259 99.7682 215.109 103.533 214.556C107.582 213.963 111.69 213.819 115.776 213.952C124.052 214.222 132.252 215.576 140.388 217.026C148.516 218.476 156.643 219.868 164.827 220.961C172.845 222.031 180.888 222.815 188.947 223.502C190.513 223.636 193.123 224.199 194.383 222.967C195.379 221.991 195.412 220.19 194.164 219.397C193.387 218.902 192.261 218.895 191.374 218.78C190.256 218.637 189.133 218.541 188.008 218.466C187.55 218.436 187.092 218.408 186.633 218.38C190.313 216.992 194.156 216.235 198.145 216.446C198.371 217.817 199.387 219.228 199.944 220.359C200.915 222.333 201.672 224.331 202.169 226.477C203.208 230.964 203.254 235.62 202.96 240.196C202.691 244.011 202.112 248.231 199.12 250.934C196.855 252.979 193.659 253.737 190.695 253.975C187.249 254.252 183.75 253.956 180.333 253.494C175.541 252.846 170.726 251.989 166.028 250.84C156.928 248.615 148.206 245.074 140.159 240.274C136.235 237.933 132.49 235.3 128.512 233.048C124.459 230.753 120.145 228.973 115.616 227.868C110.548 226.631 105.249 226.103 100.04 226.408C99.1357 226.461 97.8296 226.789 96.9503 226.445ZM91.0767 224.148C91.6093 225.877 92.0168 227.851 93.1536 229.304C94.2797 230.744 95.9785 231.252 97.7384 231.38C99.8603 231.534 102.007 231.435 104.134 231.514C108.495 231.676 112.797 232.385 116.967 233.685C120.853 234.897 124.459 236.786 127.934 238.883C131.147 240.822 134.266 242.904 137.48 244.837C136.624 245.229 135.779 245.653 134.928 246.023C133.145 246.797 131.35 247.545 129.548 248.274C125.993 249.711 122.423 251.113 118.817 252.416C111.546 255.043 104.155 257.338 96.675 259.293C93.1076 260.226 89.4894 261.315 85.7831 261.47C82.4967 261.607 79.4525 260.678 76.8019 258.723C71.3043 254.669 66.9305 248.816 63.3947 243.044C61.2941 239.614 59.4609 236.011 57.9446 232.285C57.1777 230.4 56.4822 228.487 55.8562 226.552C55.5626 225.643 55.2841 224.729 55.0205 223.811C54.9045 223.407 54.7933 223.002 54.6833 222.597C60.3049 220.881 65.9933 219.332 71.8152 218.472C74.9236 218.012 78.0733 217.78 81.2157 217.814C82.7755 217.83 84.3345 217.915 85.886 218.076C86.7212 218.162 87.5529 218.274 88.3811 218.412C88.7234 218.469 89.0751 218.553 89.4279 218.615C89.9669 220.463 90.5102 222.309 91.0767 224.148ZM207.283 216.802C207.586 216.189 207.713 215.586 207.822 214.919C207.905 214.41 208.125 213.693 207.932 213.032C207.717 212.291 207.13 211.629 206.708 210.998C206.243 210.3 205.778 209.602 205.313 208.903C204.384 207.506 203.457 206.107 202.532 204.707C198.753 198.992 195 193.261 191.241 187.533C187.905 182.45 184.625 177.321 181.188 172.306C178.248 168.017 175.045 163.8 171.021 160.465C165.934 156.248 159.877 154.262 153.549 152.712C152.858 151.994 151.935 151.602 150.949 151.682C149.555 150.1 148.447 148.995 147.945 146.984C147.704 146.021 147.779 143.314 146.842 142.744C145.728 142.067 145.146 142.963 144.839 143.973C143.811 147.353 144.99 151.896 147.705 155.282C146.561 159.236 145.045 164.856 142.34 168.024C139.443 171.417 135.437 172.473 131.114 172.542C122.871 172.675 114.636 169.61 108.349 164.299C106.438 162.684 104.663 160.881 103.057 158.964C101.852 157.525 100.428 155.305 99.4853 153.627C99.4853 152.973 98.7135 152.289 106.571 151.76C114.429 151.232 115.025 140.469 115.2 139.004C115.342 137.814 115.945 135.968 115.108 134.998C114.752 134.586 114.022 134.52 113.571 134.8C112.721 135.328 112.442 136.678 112.175 137.595C111.8 138.88 110.576 146.854 108.257 147.777C107.172 148.209 105.926 148.217 104.778 148.297C103.36 148.396 101.939 148.469 100.526 148.634C100.005 148.695 99.4367 148.863 98.9227 148.868C98.5883 148.871 98.2433 148.709 97.92 148.595C96.8291 148.209 95.7389 148.498 94.615 148.649C84.6778 149.985 74.4459 153.034 65.9698 158.521C58.499 163.357 53.2357 170.311 49.7626 178.442C46.2191 186.74 44.1879 195.713 42.4857 204.547C41.9155 207.507 41.4176 210.48 40.9898 213.464C40.5763 216.347 40.0591 219.294 39.9353 222.207C39.8863 223.359 40.1616 224.429 40.5852 225.482C41.0622 226.667 42.1898 227.134 43.2712 227.687C45.6453 228.902 48.1496 229.844 50.7298 230.511C52.3061 233.38 53.6326 236.36 54.6987 239.454C54.3032 240.238 54.295 241.408 54.2189 242.17C54.0302 244.068 53.9495 245.975 53.9326 247.881C53.8986 251.701 54.1283 255.517 54.3083 259.332C54.4908 263.2 55.0976 278.464 55.1964 280.328C55.2733 281.776 55.1698 283.801 55.9323 285.086C57.104 287.062 59.9958 286.996 61.3353 285.394C94.615 292.551 157.171 290.395 182.366 286.794C185.644 286.326 184.615 286.845 185.448 286.017C186.074 285.394 186.606 284.329 186.779 283.473C187.011 282.33 186.637 281.296 185.983 280.371C185.296 279.398 185.17 277.824 184.915 276.668C184.311 273.935 184.011 261.932 183.728 260.602C183.641 260.188 183.555 259.75 183.453 259.311C188.074 259.749 192.89 259.749 197.286 258.203C199.78 257.326 202.105 255.949 203.895 253.982C206.062 251.601 207.267 248.603 207.888 245.474C208.688 241.439 208.857 237.26 208.7 233.158C208.482 228.31 207.678 223.395 205.683 218.944C206.34 218.334 206.89 217.598 207.283 216.802Z" fill="black"/>
<path fill-rule="evenodd" clip-rule="evenodd" d="M103.981 43.648C117.266 42.9209 129.036 39.1789 138.387 47.5537C138.387 47.5537 153.515 36.228 156.039 40.5415C157.731 43.4319 155.385 47.312 156.014 50.8787C160.115 57.8872 159.883 69.7499 160.115 72.5298C160.699 79.5368 164.38 105.904 164.38 112.166C164.38 115.362 161.752 123.732 160.115 128.39C156.471 138.758 149.517 144.042 138.111 144.042C126.705 144.042 108.089 134.486 102.118 126C101.595 125.257 98.2114 127.426 94.6722 123.663C90.838 119.586 88.711 111.81 88.711 107.175C88.711 101.293 84.9191 97.2138 85.3602 89.6846C86.3452 72.8699 89.7658 44.4259 103.981 43.648Z" fill="#FFDBB4"/>
<path fill-rule="evenodd" clip-rule="evenodd" d="M156.053 40.5008C157.744 43.3912 155.399 47.2713 156.027 50.8379C157.61 53.5424 158.547 56.9698 159.115 60.3192L156.014 61.9691L154.867 62.1378C136.262 64.8876 124.388 67.3624 119.244 69.5621C114.048 71.7842 107.742 79.5887 100.326 92.9758L100.101 93.3831L98.6312 103.374L91.8943 105.445L88.7233 106.952C88.6465 101.167 84.9371 97.0952 85.3736 89.6438C86.3586 72.8291 89.7792 44.3852 103.995 43.6072C117.279 42.8801 129.049 39.1381 138.401 47.5129C148.486 39.9625 154.37 37.6251 156.053 40.5008Z" fill="#9FD8E5"/>
<path fill-rule="evenodd" clip-rule="evenodd" d="M102.497 24.0984C102.67 24.0878 102.845 24.0963 103.02 24.1134C103.212 24.1219 103.404 24.1407 103.595 24.1789C104.572 24.3668 105.442 24.8846 106.117 25.6138C106.136 25.6328 106.151 25.6542 106.167 25.673C106.484 25.9118 106.777 26.1825 107.04 26.4698C107.087 26.4254 107.131 26.3812 107.179 26.3368C107.319 26.214 107.464 26.0978 107.616 25.9881C108.251 25.4421 108.996 25.0451 109.798 24.8193L109.907 24.7895C109.929 24.7832 109.95 24.779 109.971 24.7747C110.54 24.5847 111.139 24.4875 111.742 24.4894C112.463 24.4662 113.186 24.5847 113.86 24.8635C114.659 25.1955 115.355 25.7195 115.939 26.3495C116.323 26.6623 116.658 27.0066 117.012 27.3851C117.744 28.169 118.321 29.0863 118.686 30.0967C118.737 30.2383 118.781 30.384 118.821 30.5298C119.713 30.4264 120.609 30.3525 121.505 30.3163C122.51 30.2553 123.516 30.2339 124.524 30.2679C127.3 30.3586 130.016 30.8491 132.645 31.7474C133.172 31.9036 133.684 32.1022 134.177 32.3474C134.951 32.656 135.683 33.0491 136.372 33.5246L136.959 33.8738C137.254 34.0495 137.549 34.2276 137.835 34.4102C138.516 34.8479 139.161 35.338 139.772 35.8664C140.418 36.3886 141.027 36.9572 141.607 37.553C141.764 37.7142 141.916 37.8776 142.066 38.042C143.402 38.7651 144.59 39.6908 145.697 40.7949C146.575 40.2885 147.484 39.8294 148.422 39.4213C149.39 39.0007 150.619 38.5674 151.633 38.2823C152.544 38.0266 153.444 37.8512 154.357 37.722C154.772 37.6502 155.19 37.5931 155.609 37.5445L155.593 37.5511V37.5511C155.888 37.5191 156.181 37.4917 156.478 37.4663L156.47 37.4642V37.4642C156.596 37.4538 156.725 37.4431 156.851 37.4346L157.159 37.4095V37.4095C157.252 37.401 157.387 37.6185 157.395 37.6946L157.406 37.7728V37.7728C157.475 37.8512 157.538 37.9378 157.583 37.9907C157.638 37.9862 157.692 37.9822 157.747 37.9799C157.912 37.9653 158.101 38.2589 158.198 38.3709L158.286 38.4742C158.386 38.5946 158.486 38.7333 158.502 38.8845C158.609 39.7618 158.711 40.6408 158.803 41.52C158.839 42.1858 158.803 42.8452 158.694 43.4982C158.612 44.1323 158.527 44.7664 158.443 45.3983C158.308 45.8423 158.175 46.2862 158.042 46.7298C157.99 46.8991 157.931 47.0658 157.874 47.2328C157.537 48.3479 157.141 49.4334 156.67 50.4853C157.014 50.8661 157.334 51.2609 157.632 51.6686C157.703 51.742 157.775 51.8149 157.842 51.891C157.861 51.8616 157.888 51.8341 157.918 51.8191C158.019 51.7747 158.093 51.8276 158.156 51.9144C158.82 52.5504 159.303 53.2924 159.602 54.1397L159.789 54.5816C159.82 54.6555 159.85 54.7295 159.881 54.8034C160.119 55.4461 160.302 56.1055 160.454 56.7732C160.59 57.2986 160.687 57.8312 160.75 58.3695C161.205 59.9024 161.566 61.4706 161.905 63.0177C161.959 63.2612 161.933 63.4785 161.856 63.6636L162.054 63.8576V63.8576L162.394 64.1964C162.964 64.7661 163.545 65.3651 163.968 66.043C164.407 66.7468 164.73 67.4992 165.088 68.2455L165.165 68.404V68.404L165.323 68.7219C165.494 69.0689 165.575 69.2607 165.727 69.6803C165.978 70.3801 166.113 71.0837 166.176 71.8257C166.269 72.9055 166.256 74.0827 165.784 75.0867C165.782 75.0951 165.777 75.1017 165.773 75.1078C165.558 76.0781 165.027 76.9782 164.219 77.5531C164.047 77.7161 163.861 77.8619 163.663 77.9779C163.187 78.2579 162.75 78.283 162.231 78.1534L162.166 78.1364C162.101 78.1195 162.042 78.1047 161.985 78.0921C162.069 78.1618 162.111 78.2444 161.985 78.3034C161.862 78.3626 161.753 78.3964 161.649 78.4091C161.694 78.4662 161.698 78.5274 161.605 78.5782C161.403 78.686 161.238 78.72 161.07 78.6902L161.105 78.984C161.382 81.2074 161.629 81.6472 161.846 84.0354C161.989 86.4806 162.217 88.9195 162.531 91.3482L162.639 92.2306C162.986 95.0275 163.376 97.845 163.973 100.597C164.274 101.799 164.533 103.01 164.753 104.23C165.063 105.158 165.28 106.107 165.4 107.075C165.575 108.059 165.695 109.053 165.765 110.055C166.007 110.695 166.125 111.346 166.119 112.01C166.151 112.901 166.121 113.791 166.026 114.677C165.973 115.598 165.847 116.511 165.647 117.416C165.467 118.657 165.141 119.855 164.673 121.018C164.297 122.315 163.838 123.588 163.315 124.832C162.503 126.76 161.523 128.55 160.408 130.315C159.362 131.969 158.24 133.563 156.959 135.045C155.302 136.959 153.413 138.714 151.342 140.193C150.162 141.068 148.916 141.854 147.613 142.527C146.019 143.351 144.4 144.093 142.673 144.593C141.596 144.906 140.5 145.122 139.391 145.287C137.213 145.61 134.957 145.561 132.767 145.183C131.354 144.993 129.965 144.663 128.652 144.192C127.572 143.803 126.543 143.357 125.515 142.854C124.985 142.598 124.475 142.302 123.986 141.971C123.164 141.436 122.394 140.832 121.678 140.164C121.444 139.963 121.216 139.758 120.992 139.542C120.885 139.447 120.944 139.305 121.068 139.272L121.106 139.267V139.267C121.058 139.223 121.007 139.179 120.959 139.132C120.948 139.124 120.94 139.113 120.931 139.103C120.908 139.081 120.883 139.06 120.862 139.039C120.78 138.967 120.862 138.807 120.933 138.769C120.961 138.754 120.997 138.752 121.037 138.756C121.028 138.747 121.022 138.741 121.014 138.735C121.005 138.728 121.003 138.712 121.005 138.695L120.973 138.669V138.669C120.866 138.574 120.921 138.435 121.047 138.399C121.109 138.38 121.211 138.39 121.317 138.413L121.357 138.422L121.285 138.354C121.159 138.244 121.199 138.122 121.355 138.084C121.471 138.091 121.586 138.107 121.7 138.135L121.785 138.158C121.827 138.168 121.867 138.181 121.91 138.194C121.838 138.128 121.766 138.065 121.697 137.999C121.627 137.938 121.701 137.763 121.764 137.727C121.851 137.678 122.019 137.746 122.097 137.803C122.289 137.824 122.542 137.908 122.635 137.989C122.89 138.234 123.153 138.468 123.421 138.697C123.583 138.747 123.737 138.815 123.855 138.917C124.159 139.208 124.475 139.483 124.798 139.749L125.043 139.919C125.084 139.947 125.125 139.974 125.167 140.001C125.631 140.273 126.094 140.544 126.556 140.817C128.249 141.391 129.942 141.967 131.633 142.539L131.856 142.607V142.607L133.498 142.81V142.81C134.578 142.924 135.659 142.918 136.739 142.793C137.548 142.804 138.352 142.723 139.142 142.558C140.485 142.33 141.803 141.994 143.084 141.525C144.56 140.986 145.966 140.276 147.339 139.511C147.832 139.234 148.317 138.94 148.794 138.629C148.947 138.519 149.101 138.407 149.255 138.293C150.269 137.53 151.239 136.716 152.173 135.856C152.612 135.453 153.033 135.032 153.44 134.597C153.499 134.533 153.556 134.472 153.613 134.408C154.003 133.982 154.38 133.54 154.741 133.083L155.084 132.695V132.695C156.472 130.964 157.705 129.102 158.814 127.185C159.914 125.284 160.821 123.285 161.542 121.216C161.774 120.478 161.976 119.73 162.145 118.974C162.457 118.065 162.661 117.133 162.756 116.182C162.788 115.996 162.813 115.81 162.838 115.624L162.853 115.33C162.855 115.282 162.857 115.233 162.857 115.184C162.9 114.888 162.935 114.592 162.963 114.296C162.98 113.999 162.99 113.7 162.992 113.402L162.969 111.574V111.574C162.963 111.517 162.957 111.458 162.952 111.399L162.906 110.995C162.805 110.162 162.727 109.328 162.626 108.495C162.626 108.491 162.626 108.484 162.623 108.478C162.586 108.167 162.545 107.854 162.499 107.542C162.476 107.356 162.446 107.17 162.419 106.984L162.366 106.658V106.658C162.268 106.092 162.15 105.531 162.006 104.975L161.943 104.737L161.576 102.888L161.162 101.068C160.895 99.8485 160.671 98.6205 160.494 97.382C160.174 95.4082 159.9 93.4319 159.661 91.4473C159.649 91.3522 159.636 91.255 159.626 91.1599C159.383 89.3192 159.208 87.4718 159.094 85.6182C158.94 83.7924 158.852 81.9619 158.829 80.1297C158.827 80.0471 158.881 79.9796 158.947 79.9414L158.941 79.5891C158.933 79.2774 158.928 79.6513 158.925 79.296L158.921 78.3188C158.921 78.2373 158.922 78.1806 158.924 78.1766C157.797 78.2547 157.04 78.1907 155.952 78.1333L155.768 78.1238C154.77 78.0775 153.779 77.9676 152.795 77.8025C152.791 77.8534 152.757 77.8892 152.7 77.8997C152.599 77.904 152.504 77.904 152.407 77.9063L152.443 78.0435V78.0435C152.445 78.1134 152.413 78.1576 152.346 78.1766L152.065 78.1893C151.689 78.2051 151.312 78.2125 150.94 78.1618C150.604 78.1176 150.278 78.0392 149.953 77.9462C149.753 77.9124 149.548 77.8661 149.34 77.8067C148.804 77.6525 148.273 77.4453 147.735 77.2807C147.187 77.1642 146.631 77.1264 146.049 77.2657C145.433 77.4115 144.912 77.6757 144.267 77.5151C144.139 77.4836 144.014 77.435 143.89 77.384L143.775 77.376C143.755 77.3743 143.735 77.3721 143.715 77.3692C143.042 77.2722 142.444 76.8453 141.803 76.6168C141.579 76.5622 141.357 76.576 141.14 76.6667L141.086 76.691L140.873 76.8495C140.787 76.9508 140.702 77.0532 140.619 77.1559L140.493 77.3101C140.264 77.5954 140.019 77.8511 139.722 78.0371C139.363 78.3689 138.938 78.5634 138.43 78.5761C138.141 78.5845 137.854 78.5232 137.576 78.4347C136.526 78.7601 135.402 78.8257 134.354 78.5086C133.939 78.445 133.532 78.3332 133.142 78.1576C132.959 78.0752 132.775 77.9779 132.598 77.8701C131.858 78.1832 131.158 78.5993 130.444 78.9588L130.283 79.0398C129.552 79.4045 128.744 79.7601 127.918 79.707C126.876 79.6391 125.854 79.4999 124.834 79.3242C124.825 79.3242 124.815 79.3221 124.806 79.32L124.666 79.2966V79.2966L124.155 79.2068V79.2068L123.744 79.13V79.13L123.533 79.2108C121.844 79.8518 119.992 80.3517 118.294 79.9033C117.554 79.8127 116.86 79.5631 116.234 79.1382C116.213 79.1235 116.192 79.1087 116.171 79.0917C116.072 79.041 115.979 78.9842 115.897 78.9229L115.879 78.909V78.909L115.863 78.8952L115.855 78.891C114.929 78.4643 114.398 77.5552 114.491 76.5367C114.434 76.2132 114.436 75.8961 114.499 75.5582C114.198 75.9152 113.89 76.2683 113.578 76.619C112.437 77.9967 111.319 79.4019 110.284 80.8647L110.047 81.2033C109.477 82.0084 108.948 82.8413 108.459 83.6992C107.964 84.5467 107.456 85.386 106.931 86.2145C106.248 86.9707 105.588 87.745 104.952 88.5382L104.681 88.8794L103.766 90.0862C103.119 90.8557 102.581 91.6969 102.158 92.6097C101.81 93.2588 101.489 93.9203 101.2 94.5987C101.108 94.8035 101.019 95.0107 100.933 95.2178C100.635 96.0273 100.385 96.8517 100.189 97.7033C100.031 98.3196 99.918 98.9444 99.8508 99.578L99.8302 99.7895C99.8049 100.039 99.7859 100.288 99.7753 100.537C99.8365 100.574 99.8871 100.609 99.925 100.645L100.079 100.7V100.7L100.203 100.737C100.397 100.798 100.732 100.922 100.652 101.076L100.245 101.854V101.854C100.288 101.899 100.307 101.945 100.279 101.996C100.007 102.518 99.7332 103.04 99.4591 103.562C99.4507 103.581 99.4359 103.596 99.4212 103.606C99.6552 103.714 99.8829 103.832 100.1 103.961C100.524 104.215 100.836 104.509 101.125 104.851C101.428 105.033 101.715 105.232 101.985 105.46C102.318 105.811 102.609 106.196 102.855 106.612C103.083 107.005 103.269 107.415 103.412 107.844C103.475 108.07 103.505 108.305 103.503 108.543C103.248 110.349 101.188 109.112 101.148 108.953C100.865 107.863 100.541 107.174 99.8112 106.362L99.7922 106.35V106.35C99.3706 106.164 98.9531 105.98 98.5167 105.836C98.4514 105.849 98.3839 105.857 98.3165 105.868C98.3923 105.976 98.3544 106.081 98.2005 106.1C97.5364 106.231 96.866 106.267 96.1914 106.21L95.1668 106.064V106.064C94.7418 106.228 94.3355 106.438 93.9527 106.688L93.8259 106.772L93.8028 106.789C92.814 107.586 92.0508 108.645 91.528 109.799C91.4816 109.902 91.4371 110.005 91.3945 110.11L91.3319 110.268L91.3277 110.276C90.6446 112.967 91.2539 115.922 92.502 118.363C93.1829 119.455 93.8934 120.527 94.6355 121.577L95.3565 122.522V122.522C95.7824 122.924 96.1998 123.336 96.6067 123.759C96.6699 123.822 96.7374 123.885 96.8049 123.947C97.0199 124.088 97.2392 124.213 97.4626 124.319C97.5491 124.348 97.6376 124.376 97.7262 124.399C98.1562 124.606 98.6074 124.716 99.0817 124.729C99.7083 124.77 100.316 124.697 100.904 124.51L101.021 124.471L101.108 124.439C101.428 124.234 101.725 123.978 102.008 123.678C102.071 123.613 102.189 123.613 102.324 123.649C102.398 123.573 102.472 123.492 102.541 123.406C102.59 123.353 102.666 123.351 102.725 123.391C102.925 123.368 103.467 123.676 103.326 123.839C103.302 123.877 103.273 123.911 103.248 123.947C103.342 123.995 103.437 124.05 103.522 124.107C103.964 124.231 104.618 124.673 104.565 124.807L104.559 124.817C104.456 125.012 104.323 125.175 104.159 125.304L104.104 125.346L103.979 125.432C104.154 125.543 104.302 125.669 104.228 125.758C104.194 125.823 104.158 125.887 104.116 125.944C104.475 126.388 104.831 126.836 105.185 127.284C105.539 128.053 105.978 128.772 106.501 129.438C106.937 130.16 107.462 130.809 108.075 131.388C108.126 131.439 108.179 131.488 108.229 131.536C108.681 131.871 109.154 132.185 109.647 132.486L109.859 132.614C109.971 132.682 110.158 132.766 110.07 132.929C110.059 132.95 110.047 132.967 110.032 132.98C110.342 133.183 110.662 133.375 110.993 133.553L111.025 133.572C111.15 133.652 111.319 133.797 111.141 133.916C110.989 134.017 110.586 133.743 110.397 133.616C110.361 133.616 110.319 133.606 110.276 133.593C110.34 133.627 110.402 133.663 110.465 133.699L110.561 133.751C110.635 133.796 110.997 134.036 110.744 134.138C110.62 134.149 110.506 134.117 110.401 134.045C110.276 133.984 110.154 133.918 110.034 133.85C110.076 133.916 110.076 133.982 109.971 134.024C109.935 134.026 109.899 134.024 109.863 134.02C110.112 134.178 110.367 134.326 110.631 134.466L110.673 134.492C110.785 134.565 110.962 134.702 110.833 134.821C110.687 134.952 110.287 134.673 110.184 134.609L109.876 134.425V134.425C109.853 134.436 109.827 134.44 109.8 134.442C109.893 134.5 109.979 134.561 110.074 134.616L110.203 134.686C110.365 134.776 110.593 134.923 110.51 135.07C110.428 135.216 110.182 135.096 110.023 135.001L109.852 134.895C109.845 134.891 109.837 134.886 109.829 134.882L109.823 134.907C109.821 134.912 109.82 134.916 109.817 134.92C109.738 135.058 109.539 134.967 109.402 134.888L109.292 134.821C109.105 134.708 108.92 134.596 108.736 134.483L108.461 134.314H108.457C107.506 133.741 106.627 133.17 105.799 132.435C105.303 131.995 104.841 131.53 104.403 131.033C103.522 130.038 102.866 128.899 102.234 127.736C102.223 127.717 102.238 127.668 102.263 127.616C102.193 127.472 102.126 127.326 102.059 127.176C101.409 127.358 100.684 127.411 100.016 127.366C99.6573 127.343 99.3031 127.28 98.951 127.185C97.8273 127.028 96.7437 126.515 95.8077 125.899C95.7486 125.861 95.6959 125.819 95.6411 125.781C95.2553 125.563 94.8885 125.31 94.5406 125.02C93.8618 124.458 93.2146 123.832 92.6264 123.179C92.2005 122.672 91.7978 122.146 91.4205 121.601C91.0368 121.062 90.6489 120.523 90.2609 119.984C89.1836 118.293 88.4943 116.346 88.2265 114.358C88.0958 113.624 88.0283 112.882 88.0431 112.143C88.0536 111.608 88.1127 111.067 88.216 110.528C88.1548 110.469 88.0937 110.41 88.0326 110.349C87.9988 110.408 87.9651 110.45 87.944 110.429L87.4608 109.944C87.1181 109.597 86.8881 109.342 86.4936 108.782C85.8653 107.888 85.3973 106.905 85.0494 105.87C84.7986 105.13 84.632 104.289 84.5666 103.475C84.5456 103.34 84.5245 103.203 84.5076 103.063C84.3727 101.962 84.4971 100.907 84.6636 99.821C84.6742 99.7493 84.71 99.705 84.7585 99.6815C84.7707 99.5955 84.7853 99.5071 84.7996 99.419C83.4031 97.937 82.3981 96.1509 82.4801 93.9938C82.5059 93.3141 82.645 92.6442 82.9106 92.0186L82.9429 91.948V91.948C81.7773 91.7683 80.8526 90.9474 80.1579 89.93C80.0964 89.8812 80.0367 89.8319 79.9794 89.7829C78.7372 88.7194 77.876 87.2135 77.2863 85.6229C76.8641 84.6993 76.5843 83.7123 76.4656 82.6885C76.4572 82.6154 76.4521 82.5429 76.4456 82.4702C76.1572 80.8515 76.0838 79.2164 76.217 77.6057C75.9276 76.6088 75.6921 75.5943 75.5308 74.5562C75.4549 74.0618 75.4022 73.5671 75.3622 73.0725L75.3579 73.0452L75.3516 72.9563L75.3338 72.7344C75.331 72.6977 75.3284 72.6611 75.3263 72.6244C74.97 68.0973 75.9799 63.642 77.6496 59.4489C77.795 59.0718 77.9453 58.6956 78.1002 58.3225L78.2645 57.9326V57.9326C79.9406 55.2231 82.4574 53.0316 84.589 50.7171C85.3246 49.9186 84.1349 48.7199 83.3966 49.5215C81.9803 51.0593 80.4609 52.5322 79.0891 54.1129C78.8468 54.1306 78.6042 54.1372 78.3622 54.1252C77.9405 54.1038 77.5315 54.0364 77.1352 53.9284C76.1464 53.7826 75.2462 53.3831 74.4282 52.7955C73.3341 52.2843 72.4001 51.3203 72.3074 50.0628C72.2968 49.936 72.2989 49.8113 72.3074 49.6868C72.2062 49.0716 72.2968 48.4271 72.554 47.833C72.5983 47.6703 72.6552 47.5097 72.7269 47.3512C72.9356 46.8799 73.2792 46.4278 73.6988 46.1211C73.7093 46.1148 73.7178 46.1107 73.7262 46.1042C73.7705 46.0579 73.8126 46.0112 73.8611 45.9691C73.9328 45.9034 74.0087 45.8423 74.0888 45.7853C73.8042 45.3159 73.547 44.8342 73.3277 44.3204C73.0895 43.7624 72.9672 43.1962 72.8998 42.5979C72.8724 42.3612 72.8618 42.1266 72.8576 41.8922C72.845 41.7842 72.8365 41.6743 72.8281 41.5644C72.7754 40.7274 72.8724 39.859 73.1844 39.0768C73.2076 39.0178 73.2371 38.9584 73.2645 38.8972C73.3235 38.7196 73.3889 38.5423 73.469 38.3688C73.781 37.703 74.2237 37.1387 74.7698 36.6759C75.0649 36.3779 75.3959 36.1137 75.7564 35.8896C75.9693 35.7565 76.2118 35.6381 76.4669 35.5409C76.9222 35.3 77.5062 35.0802 77.9806 35.0635C78.0375 35.0611 78.0881 35.0677 78.1429 35.0677C78.1872 33.8543 78.3432 32.5334 78.8218 31.4344C79.1 30.6378 79.5175 29.9298 80.1457 29.4202C80.5101 29.039 80.9591 28.7293 81.5193 28.527L81.6194 28.4924L81.6573 28.4818C82.1612 28.2366 82.7051 28.1394 83.2638 28.1417C83.9152 28.1077 84.5793 28.2305 85.1464 28.5304C85.2645 28.5938 85.391 28.672 85.5111 28.7566C85.6018 28.5748 85.703 28.3909 85.8189 28.2073C86.2258 27.554 86.717 26.9855 87.2863 26.4676C87.3537 26.4064 87.4275 26.3514 87.4992 26.2924C87.7754 26.0409 88.0684 25.8084 88.372 25.5971C89.0276 25.1404 89.7465 24.8003 90.5013 24.5803C91.3726 24.2575 92.292 24.1076 93.2118 24.1392L93.4022 24.1472V24.1472C93.4444 24.1512 93.4865 24.1534 93.5266 24.1555C94.4394 24.2149 95.3396 24.4389 96.1998 24.7768C97.0916 25.13 97.8463 25.6645 98.5484 26.2774C98.7128 26.0494 98.9004 25.8336 99.1302 25.6307C99.1956 25.5738 99.2652 25.5229 99.3305 25.4701C99.3811 25.4193 99.4338 25.3707 99.4886 25.3221C99.7395 25.1002 100.005 24.9079 100.296 24.7367C100.623 24.5446 100.975 24.4114 101.34 24.329C101.711 24.202 102.101 24.1238 102.497 24.0984ZM98.1647 111.228C98.202 111.226 100.155 111.96 101.127 112.434L101.175 112.458C102.297 113.016 102.836 113.417 103.844 114.134C103.912 114.182 103.981 114.256 103.981 114.328C103.981 115.372 103.728 116.648 102.853 116.082C102.727 116.001 102.599 115.921 102.471 115.842L102.278 115.725L102.271 115.727C102.274 115.727 102.276 115.725 102.278 115.723C100.372 114.558 98.3586 113.645 96.2336 112.992C96.0881 112.94 97.1654 111.308 97.4626 111.399C97.2919 111.331 98.1363 111.229 98.1647 111.228ZM118.189 65.1352C116.922 65.2711 115.655 65.4049 114.387 65.5357C113.58 65.6287 112.77 65.7112 111.961 65.7809C110.744 65.872 109.528 65.8866 108.316 65.7196C107.886 65.6607 107.464 65.5759 107.047 65.4723C106.762 65.6816 106.467 65.8781 106.165 66.0664L102.817 68.6341V68.6341C100.572 70.4034 98.3755 72.2778 96.398 74.3469C92.9443 77.9619 90.1313 82.191 88.3627 86.8756C88.2023 86.9705 88.0783 87.136 88.037 87.3898C87.7246 89.3099 86.8108 91.0612 86.4807 92.9735C86.1556 94.857 86.588 96.4582 87.7682 97.9512C88.0201 98.2701 88.5362 98.2532 88.8529 98.0378C88.9264 98.1828 89.2452 98.1767 89.3572 97.5363C89.8819 96.9667 90.3307 96.3696 90.6347 95.6303C90.8586 95.0859 90.4823 94.7084 90.0257 94.6342C90.2154 93.9495 90.4294 93.2708 90.6699 92.5994C91.3825 90.604 92.2891 88.6978 93.4296 86.9098C94.4331 85.3372 95.5947 83.9676 96.8428 82.5938C96.8576 82.5748 96.8829 82.5687 96.9103 82.5644L97.1696 82.2768V82.2768C97.2054 82.2366 97.2792 82.2409 97.3614 82.262C97.4394 82.1796 97.5153 82.095 97.5954 82.0126C97.6734 81.9281 97.7599 81.9534 97.8084 82.0211C97.9412 81.9915 98.1836 82.1352 98.2574 82.1819C98.3839 82.2662 98.424 82.3613 98.3165 82.4818C98.2975 82.5032 98.2785 82.5243 98.2595 82.5431C98.405 82.6046 98.5484 82.6868 98.6601 82.7673C99.0501 82.8538 99.5983 83.2173 99.5034 83.3253C99.3031 83.5343 99.1091 83.748 98.9173 83.9655C99.086 84.0841 99.1956 84.2001 99.1513 84.251C98.3291 85.1195 97.5701 86.039 96.8744 87.0132C96.3453 87.7402 95.8667 88.4968 95.4387 89.2852C94.8021 90.4011 94.2623 91.5487 93.7838 92.7281C93.7163 92.9079 93.651 93.0874 93.5877 93.267C92.8878 95.2305 92.365 97.2679 92.1436 99.3433L92.1343 99.4833C92.0931 100.231 92.077 102.233 92.0002 102.71C92.4661 102.941 92.951 103.137 93.4549 103.298C93.5498 103.325 93.6467 103.351 93.7437 103.374C93.7985 103.351 93.8555 103.332 93.9124 103.315C94.3762 103.127 94.8611 102.991 95.3565 102.926C95.6904 102.882 96.0227 102.866 96.3548 102.876L96.4971 102.881C96.6446 102.886 96.7901 102.896 96.9377 102.911C96.9292 102.826 96.925 102.744 96.9187 102.659C96.8765 102.632 96.8449 102.594 96.8428 102.543C96.7437 101.592 96.7416 100.641 96.8365 99.6899C96.8997 99.1933 96.9735 98.6987 97.0536 98.2044C97.1359 97.7984 97.2307 97.3991 97.334 96.9995C97.6081 95.8795 97.9728 94.7866 98.4155 93.7174C99.6763 90.6674 101.483 87.9177 103.3 85.1829C104.626 83.1858 105.881 81.144 107.253 79.1805C108.421 77.5087 109.648 75.8623 110.957 74.2983C112.264 72.7367 113.645 71.2337 115.136 69.8433C115.376 69.6211 115.619 69.4056 115.865 69.1923C117.278 67.9242 118.813 66.882 120.411 65.8593C120.472 65.8192 120.581 65.8635 120.672 65.9394L120.93 65.7805C120.973 65.7541 121.016 65.7281 121.06 65.7027C121.1 65.6776 121.144 65.7196 121.167 65.7555C121.277 65.6985 121.387 65.6437 121.496 65.5886C121.576 65.5239 121.659 65.4626 121.739 65.3988C120.554 65.339 119.371 65.2502 118.189 65.1352ZM133.051 51.0456C132.094 50.8535 131.133 50.8258 130.167 50.9695C129.763 51.0289 129.36 51.1003 128.961 51.1868C129.868 51.9793 130.597 52.9936 131.07 54.1609C131.582 55.4226 129.541 55.9664 129.037 54.7229C128.551 53.5232 127.63 52.603 126.518 52.0514C126.278 52.186 126.045 52.3318 125.822 52.4933C125.531 52.73 125.257 52.9858 125 53.2669C124.439 53.8779 123.925 54.6935 123.588 55.5008C123.457 55.9404 123.36 56.3927 123.299 56.8577C123.286 56.9634 123.274 57.0712 123.263 57.179C123.055 59.3662 123.679 61.4943 124.752 63.3774L124.794 63.3781V63.3781C125.752 62.8573 126.755 62.4185 127.787 62.0611C128.614 61.5034 129.472 60.9875 130.355 60.5204C132.233 59.5272 134.216 58.7616 136.26 58.238L136.496 58.1786C136.978 58.0554 137.463 57.9467 137.951 57.8517L138.244 57.7963H138.248L138.217 57.4812V57.4812C138.052 56.2448 137.569 55.0972 136.945 54.0364C136.477 53.2354 135.771 52.4153 134.987 51.7601L134.983 51.7578C134.627 51.5549 134.252 51.3871 133.867 51.2484L133.722 51.1977L133.051 51.0456ZM107.352 49.1669C105.362 48.9786 103.372 48.9976 101.382 49.1603C100.081 49.2895 98.7887 49.4689 97.5027 49.6972C96.632 49.8472 95.7782 50.0586 94.9391 50.3208L95.419 51.2938C96.2211 52.9143 97.0427 54.524 98.0108 56.0546C98.5104 56.8429 99.0522 57.5934 99.6425 58.3139C100.041 58.8296 100.479 59.3075 100.96 59.7469C101.087 59.9014 101.222 60.0472 101.359 60.1886C101.797 60.5648 102.269 60.8945 102.786 61.1671C103.2 61.4696 103.632 61.7338 104.083 61.9654L104.253 62.0508L105.834 62.6593C105.919 62.6832 106.004 62.7072 106.09 62.7299L106.218 62.763L106.458 62.8136L106.639 62.7154C106.669 62.6992 106.699 62.6832 106.73 62.6677C106.781 62.6405 106.817 62.6933 106.827 62.7311C106.832 62.7461 106.825 62.7671 106.815 62.7882L107.045 62.6633V62.6633C107.441 62.8245 107.862 62.9535 108.313 63.0384C108.517 63.0767 108.721 63.1061 108.926 63.1312L108.953 63.1496C108.958 63.1528 108.962 63.1563 108.967 63.1604H109.191V63.1604C110.767 63.3128 112.366 63.1113 113.939 62.8279C116.166 62.6035 118.392 62.356 120.617 62.1245C120.659 62.1205 120.676 62.1393 120.676 62.1691L120.813 62.1565V62.1565C121.011 62.1351 121.243 62.4669 121.094 62.5876C121.214 62.6593 121.33 62.763 121.416 62.8434L121.467 62.8389C121.161 62.2387 120.925 61.611 120.756 60.9581L120.541 59.8631V59.8631C120.482 59.4552 120.449 59.02 120.442 58.5908C120.427 58.3942 120.417 58.2106 120.417 58.0497C120.417 57.8975 120.419 57.7454 120.425 57.5934C120.006 57.4199 119.58 57.2679 119.146 57.1388C117.912 56.9868 116.681 56.8345 115.448 56.6844C114.708 56.7119 113.968 56.7647 113.23 56.8471C112.393 56.9211 111.558 57.0162 110.725 57.1303C110.647 57.1388 110.508 57.0331 110.424 56.9105L110.068 56.9594V56.9594C109.882 56.9826 109.688 56.6104 109.933 56.5343C110.021 56.4991 110.11 56.4658 110.198 56.4337L110.331 56.3864L110.255 56.3948C110.23 56.3972 110.198 56.3906 110.163 56.3781C109.966 56.4033 109.77 56.4287 109.576 56.4519C109.33 56.4827 109.386 56.1576 109.559 56.081L109.642 56.0503C109.496 55.9592 109.368 55.71 109.548 55.6285L109.572 55.6192C109.657 55.5856 109.739 55.5579 109.823 55.5262C109.817 55.4989 109.817 55.4734 109.825 55.4503L109.477 55.4945V55.4945C109.446 55.4987 109.597 55.2761 109.669 55.2321L109.682 55.2261L109.848 55.1754C109.874 55.1035 110.009 54.945 110.055 54.9304C110.666 54.7379 111.236 54.5648 111.83 54.4314C111.86 54.3955 111.893 54.368 111.931 54.3595C112.302 54.2708 112.678 54.201 113.053 54.1421C113.078 54.1038 113.104 54.0765 113.133 54.0742C114.063 53.9559 114.995 53.9284 115.931 53.992C116.11 54.0087 116.289 54.0279 116.468 54.051C116.812 54.0892 117.155 54.1378 117.497 54.2034C118.353 54.3505 119.188 54.5743 120.002 54.8761L120.189 54.9471C120.394 55.0234 120.596 55.1035 120.796 55.1904C120.898 54.8289 121.024 54.4737 121.174 54.1252C121.197 54.0573 121.222 53.992 121.25 53.9265L121.045 53.8037V53.8037C121.001 53.8882 120.91 53.9537 120.851 53.918C119.386 52.9268 117.836 52.1002 116.203 51.4408C115.288 51.035 114.352 50.6907 113.392 50.4031C112.914 50.249 112.431 50.1095 111.946 49.9763C111.704 49.9254 111.461 49.8747 111.215 49.8324C109.947 49.49 108.659 49.2683 107.352 49.1669ZM155.633 52.5216C155.455 52.8298 155.27 53.135 155.074 53.4359C154.121 54.8983 152.978 56.2706 151.682 57.467C152.02 57.4662 152.357 57.4791 152.69 57.5104C153.264 57.5647 153.827 57.6602 154.375 57.794C154.419 57.7583 154.469 57.7403 154.509 57.7686L154.652 57.8677V57.8677C155.828 58.1858 156.931 58.6859 157.931 59.3559L157.913 59.2236C157.91 59.2015 157.907 59.1795 157.903 59.1574C157.92 58.8974 157.924 58.6373 157.916 58.3794C157.709 56.8556 157.193 55.4522 156.602 54.0322C156.591 54.0047 156.599 53.969 156.616 53.9326C156.318 53.4448 155.992 52.9731 155.633 52.5216ZM155.905 40.5415C155.464 40.6218 155.028 40.7253 154.593 40.8543C153.777 40.9771 152.987 41.1926 152.224 41.4989C151.172 41.873 150.151 42.3083 149.135 42.7693C147.162 43.6652 145.311 44.7983 143.626 46.1636C143.519 46.2458 143.415 46.3306 143.312 46.4151C142.935 46.7425 142.568 47.0849 142.22 47.4463C141.855 47.8436 141.489 48.2412 141.124 48.6404C140.677 49.1098 140.162 49.5344 139.758 50.0417C139.675 50.1452 139.604 50.2593 139.538 50.3737L139.777 50.4559V50.4559C139.977 50.5235 139.943 50.8997 139.745 50.8448C139.678 50.8258 139.614 50.8025 139.551 50.7774C139.579 50.8133 139.597 50.8492 139.602 50.8807C139.614 50.9822 139.536 51.1219 139.412 51.0859C139.355 51.0709 139.298 51.0498 139.241 51.0265C139.224 51.0921 139.212 51.1576 139.212 51.221C139.222 51.2252 139.233 51.2294 139.245 51.2318C139.385 51.2804 139.646 51.4979 139.684 51.646C139.713 51.7601 139.616 51.8825 139.492 51.8487C139.399 51.8233 139.309 51.7853 139.22 51.743C139.279 51.8003 139.326 51.8616 139.33 51.9144C139.338 52.0117 139.254 52.1488 139.138 52.1173C138.923 52.0579 138.75 51.9673 138.607 51.8531C138.569 51.9037 138.514 51.9438 138.47 51.9313L138.387 51.906V51.906C138.41 51.927 138.43 51.9491 138.45 51.9708L138.48 52.003C139.062 52.6328 139.57 53.3303 139.977 54.0808C139.996 54.0594 140.019 54.0404 140.049 54.0172C140.238 53.8565 140.434 53.7001 140.631 53.5482L140.69 53.4962V53.4962L140.751 53.4444L140.31 53.5902L140.32 53.5788C140.351 53.5388 140.448 53.4056 140.493 53.3612L140.504 53.3514C141.109 52.8084 141.769 52.3475 142.482 51.9715C142.943 51.6712 143.428 51.4175 143.936 51.2083C145.148 50.644 146.384 50.2152 147.653 49.8178C147.843 49.7565 148.032 49.691 148.222 49.6316C148.277 49.6126 148.288 49.6359 148.279 49.6739L148.378 49.6443V49.6443C148.555 49.5873 148.857 49.9 148.737 50.0459C148.809 50.1051 148.88 50.171 148.943 50.2329L148.987 50.2784L149.038 50.2636C149.189 50.217 149.443 50.4524 149.604 50.6191L149.723 50.7455C149.814 50.8427 149.991 51.0435 149.774 51.1219L149.502 51.2146V51.2146C149.51 51.2696 149.487 51.3161 149.403 51.3478C149.308 51.3795 149.215 51.4133 149.122 51.4473C149.179 51.4965 149.234 51.5477 149.288 51.5995L149.369 51.6775C149.464 51.7752 149.691 51.9905 149.491 52.0856L149.466 52.096L149.207 52.189C149.24 52.2651 149.232 52.3371 149.118 52.3792C147.605 52.8949 146.127 53.4996 144.683 54.1864C143.601 54.7865 142.458 55.2347 141.255 55.5283C141.155 55.5602 140.94 55.4102 140.852 55.2601L140.672 55.3131C140.642 55.3219 140.612 55.3303 140.582 55.3381L140.553 55.3446V55.3446C140.778 55.947 140.945 56.5999 141.037 57.2318C141.048 57.2889 141.056 57.3482 141.063 57.4053C141.299 57.3861 141.533 57.3692 141.769 57.3567C143.403 57.2698 145.056 57.3227 146.694 57.5171C147.356 57.1219 147.992 56.6886 148.602 56.2196C148.787 56.0757 148.971 55.9278 149.152 55.7777C150.24 54.8309 151.224 53.768 152.097 52.6201C152.905 51.557 153.607 50.4157 154.197 49.2197C154.72 48.0972 155.152 46.9306 155.479 45.7259C155.778 44.6247 155.881 43.5532 155.957 42.414C155.983 42.228 155.999 42.0423 156.014 41.8561L156.012 41.7764V41.7764L156.01 41.7377C155.989 41.3385 155.949 40.9388 155.905 40.5415ZM140.458 54.6956C140.409 54.7125 140.359 54.7294 140.308 54.7442C140.337 54.8097 140.365 54.8733 140.392 54.9386L140.395 54.9373V54.9373L140.595 54.7801V54.7801C140.553 54.7611 140.504 54.7317 140.458 54.6956ZM155.609 37.5446C155.989 37.403 156.276 37.3755 156.47 37.4643C156.183 37.4854 155.896 37.5129 155.609 37.5446Z" fill="black"/>
<path fill-rule="evenodd" clip-rule="evenodd" d="M143.152 128.274C141.732 127.695 140.465 126.728 139.538 125.493C139.216 125.063 139.133 124.61 139.2 124.195C139.276 123.729 139.552 123.306 139.928 123.023C140.305 122.739 140.777 122.598 141.233 122.67C141.63 122.732 142.024 122.949 142.337 123.399L142.402 123.489C142.953 124.235 143.67 124.846 144.488 125.241C145.276 125.621 146.158 125.798 147.07 125.695C148.808 125.499 150.005 124.559 151.278 123.282C151.436 123.121 151.594 122.955 151.752 122.786C151.852 122.633 151.991 122.534 152.146 122.483C152.317 122.425 152.511 122.429 152.689 122.491C152.86 122.55 153.013 122.664 153.116 122.815C153.213 122.958 153.269 123.135 153.251 123.339C153.134 124.661 152.443 125.842 151.461 126.769C150.37 127.799 148.924 128.511 147.563 128.761C146.064 129.036 144.536 128.839 143.152 128.274V128.274ZM148.271 107.866C149.866 108.836 152.297 111.098 150.581 113.503C148.56 115.624 145.652 113.193 144.219 112.093C142.89 111.241 141.396 113.433 142.629 114.428C152.987 122.099 157.19 108.12 149.078 106.726C148.184 106.572 147.853 107.566 148.271 107.866ZM129.711 98.9429C129.887 96.7541 133.219 96.257 133.551 98.423C133.847 100.363 133.498 102.145 132.624 103.892C131.79 105.561 129.692 104.783 129.533 103.263C129.32 101.226 129.601 100.304 129.711 98.9429ZM155.076 97.9739C155.541 97.3652 156.212 96.9497 157.015 97.1845C159.526 97.9185 158.786 101.485 157.904 103.22C157.425 104.163 155.876 104.402 155.176 103.572C154.036 102.219 153.489 99.5157 154.94 98.1825C154.979 98.1136 155.023 98.044 155.076 97.9739ZM132.589 89.3654L132.986 89.2959C134.213 89.0836 135.738 88.8796 136.606 89.8665C137.067 90.3898 137.225 91.3624 136.606 91.8633C135.518 92.7446 134.314 92.4031 133.01 92.4777C131.935 92.5394 130.902 92.7174 129.867 93.0135C127.595 93.6629 125.744 94.8486 123.804 96.1505C123.55 96.3213 123.29 95.9956 123.411 95.7574C124.531 93.563 126.701 91.7604 128.875 90.6616C130.036 90.0751 131.305 89.5885 132.589 89.3654ZM152.787 88.3823L153.091 88.4445C156.395 89.1353 160.687 90.5153 162.251 93.7615C162.311 94.2205 162.248 94.3189 162.197 94.3832L162.18 94.4046C162.137 94.4595 162.104 94.5351 161.905 94.5976C161.85 94.5845 161.794 94.5705 161.737 94.5557C161.02 94.3677 160.453 94.1087 159.904 93.84L159.308 93.5465C158.617 93.2076 157.92 92.881 157.181 92.6399C155.605 92.1255 153.983 91.7631 152.337 91.5696C151.98 91.5277 151.636 91.4072 151.365 91.2007C151.108 91.0046 150.911 90.7332 150.821 90.3724C150.705 89.9056 150.739 89.5521 150.989 89.1309C151.177 88.8146 151.447 88.5953 151.756 88.4694C152.071 88.3411 152.43 88.3108 152.787 88.3823Z" fill="black"/>
</svg>
